<svg t="1579257221265" class="icon" viewBox="0 0 1024 1024" version="1.1" xmlns="http://www.w3.org/2000/svg" p-id="4907" width="200" height="200"><path d="M860.889751 508.477686c-45.519139 0-83.99365 29.081672-98.805433 69.362497l-89.412595-31.24925c0.722526-5.780208 1.083789-11.741048 1.083789-17.701887 0-27.094726-6.683366-52.563768-18.605045-74.962075l75.142706-64.666078c16.618098 10.83789 36.306932 17.340624 57.62145 17.340624 58.163345 0 105.66943-47.325454 105.669431-105.66943 0-58.163345-47.325454-105.66943-105.669431-105.66943s-105.66943 47.325454-105.66943 105.66943c0 17.159993 4.515788 33.055565 11.741048 47.325454l-72.252602 62.137238c-23.120833-21.314518-52.383136-36.126301-84.896807-41.003352V267.334627c46.422297-11.199153 81.103546-52.744399 81.103545-102.418063 0-58.163345-47.325454-105.66943-105.66943-105.66943S406.420886 106.753219 406.420886 165.097195c0 47.686717 31.971776 87.60628 75.323337 100.611748v104.766273c-32.694302 6.141471-61.956606 22.217675-84.535544 44.977245L323.330393 348.799436c7.405892-14.45052 11.921679-30.526724 11.92168-47.686718 0-58.163345-47.325454-105.66943-105.669431-105.66943s-105.66943 47.325454-105.66943 105.66943c0 58.163345 47.325454 105.66943 105.66943 105.669431 21.133886 0 40.642089-6.322103 57.079556-16.979362l78.935967 71.168813c-9.754101 20.772623-15.353678 43.893456-15.353677 68.278709 0 5.599577 0.361263 11.199153 0.903157 16.618098L262.276945 572.60187c-14.45052-41.003352-53.286294-70.626918-99.166696-70.626919-58.163345 0-105.66943 47.325454-105.669431 105.669431s47.325454 105.66943 105.669431 105.66943c51.118716 0 93.747751-36.487564 103.501852-84.535544l99.527959-29.98483c11.018522 23.301464 27.455989 43.351561 47.686717 58.885871L361.263009 753.955901c-1.806315-0.180632-3.61263-0.541895-5.418945-0.541895-58.163345 0-105.66943 47.325454-105.66943 105.66943S297.68072 964.572235 355.844064 964.572235s105.66943-47.325454 105.66943-105.66943c0-36.668195-18.785676-69.001235-47.144822-87.967543l48.228611-88.328806c15.534309 5.057682 32.152408 7.767155 49.493033 7.767155 17.159993 0 33.778091-2.709473 49.312401-7.767155l47.325454 89.051332c-27.817252 18.966308-46.061034 50.938084-46.061034 87.245017 0 58.163345 47.325454 105.66943 105.66943 105.66943 58.163345 0 105.66943-47.325454 105.669431-105.66943S726.680543 753.233374 668.336567 753.233374c-2.34821 0-4.515788 0.541895-6.863997 0.722527l-51.479979-96.637855c20.050097-15.353678 36.306932-35.042512 47.506086-57.982713l100.069854 34.86188c9.392838 48.589875 52.202505 85.438702 103.501852 85.438702 58.163345 0 105.66943-47.325454 105.66943-105.669431s-47.686717-105.488799-105.850062-105.488798z m-631.307109-156.607515c-27.997883 0-50.757453-22.75957-50.757452-50.757453s22.75957-50.757453 50.757452-50.757453 50.757453 22.75957 50.757453 50.757453-22.578938 50.757453-50.757453 50.757453zM163.29088 658.040572c-27.997883 0-50.757453-22.75957-50.757453-50.757453s22.75957-50.757453 50.757453-50.757453 50.757453 22.75957 50.757453 50.757453-22.75957 50.757453-50.757453 50.757453zM355.844064 909.840889c-27.997883 0-50.757453-22.75957-50.757453-50.757453s22.75957-50.757453 50.757453-50.757453 50.757453 22.75957 50.757453 50.757453-22.578938 50.757453-50.757453 50.757453z m363.069325-50.757453c0 27.997883-22.75957 50.757453-50.757453 50.757453-27.997883 0-50.757453-22.75957-50.757453-50.757453s22.75957-50.757453 50.757453-50.757453c27.997883-0.180632 50.757453 22.578938 50.757453 50.757453z m68.820603-608.728171c27.997883 0 50.757453 22.75957 50.757453 50.757453s-22.75957 50.757453-50.757453 50.757453-50.757453-22.75957-50.757453-50.757453 22.75957-50.757453 50.757453-50.757453zM461.152231 165.097195c0-27.997883 22.75957-50.757453 50.757453-50.757453s50.757453 22.75957 50.757453 50.757453-22.75957 50.757453-50.757453 50.757453-50.757453-22.75957-50.757453-50.757453zM512.090316 635.822896c-58.885871 0-106.753219-47.867349-106.75322-106.753219s47.867349-106.753219 106.75322-106.753219 106.753219 47.867349 106.753219 106.753219-47.867349 106.753219-106.753219 106.753219z m348.799435 29.081673c-27.997883 0-50.757453-22.75957-50.757453-50.757453 0-27.997883 22.75957-50.757453 50.757453-50.757453 27.997883 0 50.757453 22.75957 50.757453 50.757453 0 27.997883-22.75957 50.757453-50.757453 50.757453z" p-id="4908" fill="#2c2c2c"></path></svg>